<?xml version="1.0" encoding="UTF-8"?>
<svg version="1.1" xmlns="http://www.w3.org/2000/svg" width="646" height="180">
<path d="M0 0 C0.99 0.495 0.99 0.495 2 1 C1.12859375 1.58265625 0.2571875 2.1653125 -0.640625 2.765625 C-16.46412803 13.56057662 -27.57651297 25.62819809 -36 43 C-34.35 43 -32.7 43 -31 43 C-30.67128906 42.32195313 -30.34257813 41.64390625 -30.00390625 40.9453125 C-22.92348229 27.09147483 -12.38573235 17.05715046 2 11 C2.99 11.33 3.98 11.66 5 12 C4.154375 12.61875 3.30875 13.2375 2.4375 13.875 C-6.74752512 21.58695505 -12.19904392 33.5415433 -15 45 C-14.39414063 45.01417969 -13.78828125 45.02835938 -13.1640625 45.04296875 C-5.09684353 45.50217968 1.18900005 48.02556101 7.5625 53 C9.36607927 55.50932768 9.92771869 56.89190366 10 60 C7.68421053 66.31578947 7.68421053 66.31578947 6 68 C6.66386719 68.15855469 7.32773438 68.31710938 8.01171875 68.48046875 C13.48075951 69.92557295 17.73784237 71.05051946 21 76 C21.15219563 80.26147755 20.57360892 82.26995228 17.9375 85.625 C9.54518086 92.41027931 -0.21549223 97.52793069 -11 99 C-10.67 99.99 -10.34 100.98 -10 102 C-8.22009448 126.1656403 -16.35708271 151.2991684 -32.04296875 169.76953125 C-32.68878906 170.50558594 -33.33460937 171.24164063 -34 172 C-34.65613281 172.78761719 -35.31226563 173.57523438 -35.98828125 174.38671875 C-39.48104665 178.53031001 -39.48104665 178.53031001 -41 180 C-41.66 180 -42.32 180 -43 180 C-42.60485063 178.54148119 -42.20879943 177.08320674 -41.8125 175.625 C-41.54050781 174.62210938 -41.26851562 173.61921875 -40.98828125 172.5859375 C-40.27065791 169.982071 -39.53932915 167.38464055 -38.79296875 164.7890625 C-32.80872915 143.86588114 -30.092113 124.73628404 -32 103 C-34.31 103 -36.62 103 -39 103 C-38.62746094 103.89203125 -38.25492188 104.7840625 -37.87109375 105.703125 C-37.39800781 106.87359375 -36.92492188 108.0440625 -36.4375 109.25 C-35.96183594 110.41015625 -35.48617187 111.5703125 -34.99609375 112.765625 C-34.04229476 115.86266644 -33.79016644 117.07321701 -35 120 C-43.07177648 112.32232473 -51.05685807 104.67855662 -55 94 C-56.06347656 94.2165625 -56.06347656 94.2165625 -57.1484375 94.4375 C-69.70037029 96.62573041 -82.30228066 96.18618357 -95 96 C-95 95.67 -95 95.34 -95 95 C-94.08710205 94.85900879 -93.1742041 94.71801758 -92.23364258 94.57275391 C-88.8316657 94.04444691 -85.43060985 93.51082542 -82.0300293 92.97363281 C-80.56096017 92.7426705 -79.09156023 92.51380189 -77.62182617 92.28710938 C-75.50347902 91.95999583 -73.38645461 91.62525202 -71.26953125 91.2890625 C-69.99698486 91.09006348 -68.72443848 90.89106445 -67.41333008 90.68603516 C-64.38058777 90.07649321 -61.81198101 89.26386448 -59 88 C-59.20496094 87.41992188 -59.40992188 86.83984375 -59.62109375 86.2421875 C-63.95383528 73.67931014 -63.94343314 62.72932046 -60 50 C-59.505 49.01 -59.505 49.01 -59 48 C-60.65 48 -62.3 48 -64 48 C-64 47.34 -64 46.68 -64 46 C-62.96875 45.855625 -61.9375 45.71125 -60.875 45.5625 C-56.43987184 44.30677094 -54.95101088 41.54521286 -52.75 37.6796875 C-48.3600869 30.95763306 -42.80277415 25.58246563 -36.4375 20.75 C-35.72368164 20.20496826 -35.00986328 19.65993652 -34.27441406 19.09838867 C-24.0871695 11.56637633 -12.06366209 4.08734257 0 0 Z M-39 48 C-43.32461464 60.39465445 -43.46395172 71.97901645 -43 85 C-40.36 84.01 -37.72 83.02 -35 82 C-34.98018066 81.3608667 -34.96036133 80.7217334 -34.93994141 80.06323242 C-34.84336503 77.10431367 -34.73423609 74.14597741 -34.625 71.1875 C-34.5940625 70.18267578 -34.563125 69.17785156 -34.53125 68.14257812 C-34.26627183 61.27522717 -33.41290759 54.72500847 -32 48 C-34.31 48 -36.62 48 -39 48 Z M-16 51 C-17.78402396 52.78402396 -17.13232529 55.15878397 -17.13671875 57.53125 C-17.13285156 58.2634375 -17.12898438 58.995625 -17.125 59.75 C-17.12886719 60.46671875 -17.13273437 61.1834375 -17.13671875 61.921875 C-17.12969993 65.740112 -16.92035258 69.28937214 -16 73 C-9.28137793 68.57804083 -9.28137793 68.57804083 -5 62 C-5.07865767 58.77503565 -5.71843242 57.36499502 -7.6875 54.8125 C-10.34763042 52.72753292 -12.75764954 51.8842774 -16 51 Z M-4.5625 75.3125 C-7.69772509 77.45628082 -10.5877921 79.29389605 -14 81 C-13.34 85.29 -12.68 89.58 -12 94 C-6.72989222 93.1216487 -3.93572629 92.2065973 0.625 89.75 C1.73101562 89.16734375 2.83703125 88.5846875 3.9765625 87.984375 C7.09116866 85.9401632 8.95680008 84.09968379 11 81 C11.16977494 78.34872531 11.16977494 78.34872531 10 76 C5.04607155 71.04607155 0.91469804 71.51121791 -4.5625 75.3125 Z M-42 91 C-41.34 94.3 -40.68 97.6 -40 101 C-36.535 100.505 -36.535 100.505 -33 100 C-33.33 96.37 -33.66 92.74 -34 89 C-37.20395416 89 -39.09399739 89.74335022 -42 91 Z " fill="#FBFAFA" transform="translate(95,0)"/>
<path d="M0 0 C1.3096875 -0.00773437 2.619375 -0.01546875 3.96875 -0.0234375 C7.58322966 0.38439096 9.008577 0.79152936 11.5 3.375 C12.72097303 7.12513146 12.56378832 9.15731345 11.44921875 12.9609375 C10.16197706 17.9277153 10.68409314 22.28734497 11.4375 27.3125 C11.56938721 28.24674805 11.70127441 29.18099609 11.8371582 30.14355469 C13.5344935 41.07933364 16.67492319 51.63572434 19.9050293 62.20214844 C20.5 64.375 20.5 64.375 20.5 66.375 C21.345625 66.024375 22.19125 65.67375 23.0625 65.3125 C27.06349532 64.22131946 29.49684136 64.33714406 33.5 65.375 C35.9375 66.875 35.9375 66.875 37.5 69.375 C38.27287521 73.7094754 38.30612673 77.13480503 35.875 80.875 C33.06404634 82.65033915 30.78902165 83.07599803 27.5 83.375 C30.58638097 90.05096345 30.58638097 90.05096345 34.75 96.0625 C37.095225 99.16154732 37.42869908 101.52475028 37.5 105.375 C35.73468433 108.0229735 34.56900421 108.3519986 31.5 109.375 C26.03493743 109.73336476 22.01797959 109.84228666 17.5 106.375 C16.5107725 104.28413277 15.89728918 102.22747959 15.2890625 99.99609375 C14.09509889 96.0300067 12.26763101 92.39206681 10.48828125 88.66015625 C9.5 86.375 9.5 86.375 9.5 84.375 C8.53960815 84.55675781 8.53960815 84.55675781 7.55981445 84.7421875 C4.64489963 85.29112574 1.72873587 85.83312566 -1.1875 86.375 C-2.19490234 86.56578125 -3.20230469 86.7565625 -4.24023438 86.953125 C-5.21669922 87.13359375 -6.19316406 87.3140625 -7.19921875 87.5 C-8.09471436 87.66757813 -8.99020996 87.83515625 -9.9128418 88.0078125 C-12.48012932 88.37217982 -14.91092013 88.44028807 -17.5 88.375 C-17.67015625 89.48359375 -17.8403125 90.5921875 -18.015625 91.734375 C-18.25957211 93.19805768 -18.50441076 94.66159196 -18.75 96.125 C-18.85957031 96.85460937 -18.96914062 97.58421875 -19.08203125 98.3359375 C-19.67848813 101.78910894 -20.21595906 103.98313441 -22.30078125 106.859375 C-26.15334437 109.51442738 -30.01242056 109.07936117 -34.5 108.375 C-37.5625 106.8125 -37.5625 106.8125 -39.5 104.375 C-40.5 100.875 -40.5 100.875 -40.5 97.375 C-39.51585924 96.02991831 -38.51452556 94.69731451 -37.5 93.375 C-36.6902049 91.2176361 -36.6902049 91.2176361 -36.18481445 88.87963867 C-35.97061356 87.99318161 -35.75641266 87.10672455 -35.53572083 86.19340515 C-35.31381577 85.23626114 -35.09191071 84.27911713 -34.86328125 83.29296875 C-34.36267688 81.223296 -33.86202411 79.15363496 -33.36132812 77.08398438 C-32.59268934 73.85618568 -31.82784685 70.62752467 -31.06567383 67.39819336 C-26.83949285 49.57883782 -22.05339767 31.92167183 -14.30659485 15.26417542 C-12.95790403 12.10532368 -12.61635568 8.916301 -12.1875 5.5390625 C-11.5 3.375 -11.5 3.375 -9.90625 1.609375 C-6.53106023 -0.12205352 -3.77514842 -0.02229418 0 0 Z M-4.5 41.375 C-8.70539741 51.64077833 -12.34297466 61.46298943 -14.5 72.375 C-8.89 71.385 -3.28 70.395 2.5 69.375 C1.7561008 63.42380638 0.8519498 57.81930133 -0.4375 52 C-0.60701172 51.19433594 -0.77652344 50.38867188 -0.95117188 49.55859375 C-1.84971992 45.02759391 -1.84971992 45.02759391 -4.5 41.375 Z " fill="#FCFCFC" transform="translate(160.5,22.625)"/>
<path d="M0 0 C6.22545134 3.23678358 9.76136196 7.58471568 11.875 14.25 C12.31313489 15.97385217 12.72980026 17.70330115 13.125 19.4375 C13.3415625 20.26636719 13.558125 21.09523438 13.78125 21.94921875 C15.39815602 28.72533147 16.19790791 35.80991116 12.625 42.0625 C8.80381175 44.16415354 5.38193082 44.16915998 1.125 43.4375 C-3.26273175 41.24363412 -5.96834197 38.99229418 -7.875 34.4375 C-8.20300134 29.92748161 -7.6143836 25.8738016 -6.875 21.4375 C-7.92077112 20.20394994 -7.92077112 20.20394994 -10.1875 20 C-13.10106867 20.19566334 -13.10106867 20.19566334 -15.125 22.8125 C-17.59009691 27.06856528 -18.05247444 31.5839598 -17.875 36.4375 C-15.06738255 46.96606546 -4.51751867 51.71247942 4.2734375 56.84960938 C10.58797865 60.68559258 14.32316892 64.38338007 17.375 71.25 C19.52122994 80.37147723 19.77111858 88.60719796 15.4375 97.125 C12.05606418 102.55043807 7.22081163 106.51436406 1.125 108.4375 C-8.16918818 109.3018146 -16.88939502 109.2155959 -24.50390625 103.4453125 C-29.11436255 99.4589791 -32.54733568 95.53991862 -35.875 90.4375 C-37.24929495 89.24553725 -38.64732207 88.08062433 -40.0625 86.9375 C-42.83586863 84.59876377 -43.78484711 83.68423422 -45.0625 80.1875 C-44.875 77.4375 -44.875 77.4375 -43.875 75.6875 C-38.45622811 72.30076757 -33.49515083 72.25471057 -27.3046875 72.66015625 C-22.62617861 74.15697823 -20.35538161 77.57851255 -18.03125 81.734375 C-16.92301982 84.04493038 -15.81887948 86.35745166 -14.71875 88.671875 C-13.14338794 91.61736548 -13.14338794 91.61736548 -10.34375 92.390625 C-7.73846271 92.57764341 -7.73846271 92.57764341 -4.875 91.4375 C-2.66064838 87.00879675 -3.48062164 81.25833403 -3.875 76.4375 C-6.43724431 70.03188922 -12.10685948 67.64458613 -17.875 64.4375 C-33.26201101 55.70867357 -33.26201101 55.70867357 -37.125 46.4375 C-39.89651607 35.35143571 -39.78678064 24.30980621 -34.62109375 13.9140625 C-26.77182069 1.3808908 -14.75358563 -5.82641602 0 0 Z " fill="#FBFBFB" transform="translate(322.875,23.5625)"/>
<path d="M0 0 C3 1.125 3 1.125 5 3 C5.9375 6 5.9375 6 6 9 C5.01 10.485 5.01 10.485 4 12 C3.82822225 14.75786415 3.76783762 17.41215524 3.8046875 20.16796875 C3.80893234 21.36018791 3.80893234 21.36018791 3.81326294 22.57649231 C3.82445295 25.11364838 3.84955509 27.65045072 3.875 30.1875 C3.88503134 31.90819802 3.89415692 33.62890159 3.90234375 35.34960938 C3.92438839 39.56654243 3.95890994 43.78321125 4 48 C4.60908203 47.30277832 5.21816406 46.60555664 5.84570312 45.88720703 C7.05129883 44.52378174 7.05129883 44.52378174 8.28125 43.1328125 C9.07595703 42.22934082 9.87066406 41.32586914 10.68945312 40.39501953 C14.82083638 36.11259458 18.63777717 34.90868581 24.5625 34.5625 C29.16330998 34.78864151 31.61859762 35.69373989 35 39 C42.24246545 50.49763101 43.35505953 61.42450033 43.25 74.75 C43.23876099 76.6052832 43.23876099 76.6052832 43.22729492 78.49804688 C42.96155008 101.02845901 42.96155008 101.02845901 38.69921875 105.3125 C34.71923852 107.80070761 31.5510004 107.8065064 27 107 C23.9375 105.375 23.9375 105.375 22 103 C21.55733606 99.96459011 21.44525136 97.99628327 22.95703125 95.28125 C24.40162161 92.12154674 24.73275597 88.91611089 25.125 85.5 C25.25128784 84.43531494 25.25128784 84.43531494 25.38012695 83.34912109 C27.43065761 67.06383396 27.43065761 67.06383396 23 52 C19.92885973 52.65546617 19.92885973 52.65546617 18.93896484 54.83422852 C18.62910645 55.54893311 18.31924805 56.2636377 18 57 C17.33177988 58.22089453 16.65712823 59.43828779 15.9765625 60.65234375 C9.24791755 72.84729873 1.85295001 86.86812531 4.40234375 101.2734375 C5.45425868 107.3044164 5.45425868 107.3044164 3 111.0625 C-0.73907826 113.47732138 -2.62971433 113.7945974 -7 113 C-11.5365246 109.07651926 -12.7021989 103.5370204 -13.18931198 97.75151825 C-13.27212808 95.28000947 -13.29312565 92.81566659 -13.29052734 90.34277344 C-13.29724457 89.41168762 -13.30396179 88.48060181 -13.31088257 87.52130127 C-13.32976336 84.46727052 -13.33378059 81.41346034 -13.3359375 78.359375 C-13.34236826 76.22804678 -13.34909683 74.09671945 -13.35610962 71.96539307 C-13.36805456 67.51043651 -13.3717929 63.05555737 -13.37060547 58.60058594 C-13.3704015 52.88837558 -13.39779599 47.17665841 -13.43214989 41.46456528 C-13.45435711 37.06884468 -13.45844504 32.67324442 -13.45738602 28.27747345 C-13.45974774 26.17070045 -13.46860326 24.06392442 -13.48405075 21.95720673 C-13.50360176 19.01766416 -13.49791742 16.07920771 -13.48583984 13.13964844 C-13.49707886 12.268927 -13.50831787 11.39820557 -13.51989746 10.50109863 C-13.45830206 4.61470773 -13.45830206 4.61470773 -11.10610962 1.45977783 C-7.53054926 -1.01849951 -4.1769143 -0.60308388 0 0 Z " fill="#FCFCFC" transform="translate(555,21)"/>
<path d="M0 0 C3.77325014 2.33389982 7.18572272 4.85254325 8.796875 9.1015625 C9.2340063 11.8804686 9.13866044 14.40168567 8.50390625 17.140625 C6.040322 20.18651098 2.49676168 20.09846366 -1.1875 20.5625 C-2.68218522 20.7634334 -4.17573673 20.97299893 -5.66796875 21.19140625 C-6.33078857 21.27592041 -6.9936084 21.36043457 -7.67651367 21.44750977 C-10.98267464 22.2336653 -13.90040144 23.60873088 -17 25 C-16.91550312 33.8930068 -16.82058369 42.78582422 -16.71247292 51.67857552 C-16.66259407 55.80814398 -16.61626351 59.93768791 -16.578125 64.06738281 C-16.54116564 68.05511107 -16.49477722 72.04262975 -16.44193649 76.03017807 C-16.423449 77.54911486 -16.40832033 79.06809648 -16.39665604 80.58710098 C-16.37969637 82.71990526 -16.35063939 84.85223545 -16.31884766 86.98486328 C-16.30552399 88.1973172 -16.29220032 89.40977112 -16.2784729 90.65896606 C-15.99351307 94.07782823 -15.15952042 96.78642382 -14 100 C-13.5625 103.6875 -13.5625 103.6875 -14 107 C-17.57601406 110.35251319 -22.19884767 111.13717578 -27 111 C-31.68846333 110.1363357 -35.07205985 108.8395649 -38.625 105.625 C-40 103 -40 103 -39.9375 100.5 C-39 98 -39 98 -37.46191406 95.74584961 C-35.69793346 92.43264156 -35.64077196 90.30547423 -35.671875 86.56640625 C-35.67638672 85.29087891 -35.68089844 84.01535156 -35.68554688 82.70117188 C-35.70646187 81.32160583 -35.7279594 79.94204852 -35.75 78.5625 C-35.7619625 77.14518956 -35.77301818 75.7278712 -35.78320312 74.31054688 C-35.91472972 59.86758747 -36.41022679 45.43062121 -37 31 C-38.87945312 31.29777344 -38.87945312 31.29777344 -40.796875 31.6015625 C-44.26076105 32.15036749 -44.90370768 32.04814616 -48.25 30.375 C-50.96534599 28.02992846 -53.12952896 26.0675725 -55 23 C-54.86669922 20.50170898 -54.86669922 20.50170898 -54 18 C-47.84961823 13.18001996 -39.28789681 11.41893468 -31.875 9.4375 C-23.76733471 7.25622426 -16.37368676 5.09358332 -9.4375 0.1875 C-5.77492974 -1.5968291 -3.88197612 -1.1843317 0 0 Z " fill="#FCFCFC" transform="translate(440,23)"/>
<path d="M0 0 C2.66562989 2.48614858 3.66408329 3.85164567 4.56640625 7.4609375 C4.32792706 28.95387468 -13.5373848 45.86143001 -27.43359375 60.4609375 C-23.7573115 64.64395054 -19.25183217 67.25886777 -14.55859375 70.1484375 C-12.84732058 71.21430501 -11.13638584 72.28071606 -9.42578125 73.34765625 C-8.58112305 73.87278809 -7.73646484 74.39791992 -6.86621094 74.93896484 C-2.37958315 77.74603406 2.05152907 80.63845578 6.48828125 83.5234375 C9.79785758 85.6066226 13.15884977 87.54311677 16.56640625 89.4609375 C16.87890625 92.6484375 16.87890625 92.6484375 16.56640625 96.4609375 C13.57974085 100.07637456 11.42991411 102.23443378 6.73828125 102.8046875 C5.6090625 102.85625 4.47984375 102.9078125 3.31640625 102.9609375 C2.1975 103.033125 1.07859375 103.1053125 -0.07421875 103.1796875 C-4.33488232 102.26810367 -5.24381429 100.69289304 -7.80810547 97.35449219 C-10.61809373 94.08109643 -14.21502249 92.0599667 -17.87109375 89.8359375 C-19.32913828 88.92870979 -20.78618086 88.01986972 -22.2421875 87.109375 C-23.19822876 86.52422119 -23.19822876 86.52422119 -24.17358398 85.92724609 C-24.91938721 85.44336426 -25.66519043 84.95948242 -26.43359375 84.4609375 C-27.02000641 84.13623978 -27.60641907 83.81154205 -28.21060181 83.477005 C-33.00330795 80.5696353 -33.00330795 80.5696353 -34.14353943 77.63165283 C-34.48926726 75.42728066 -34.61172426 73.31304494 -34.65234375 71.08203125 C-34.68598022 70.27411636 -34.7196167 69.46620148 -34.75427246 68.63380432 C-34.81458649 66.92558226 -34.85722259 65.21665593 -34.88330078 63.50756836 C-34.93307277 60.92546537 -35.06811752 58.35771649 -35.2109375 55.77929688 C-35.64424706 43.86505057 -33.56503588 38.37901484 -25.43359375 29.4609375 C-20.54764098 22.02779908 -20.54764098 22.02779908 -19.43359375 13.4609375 C-24.8140482 14.67153975 -27.87265881 17.33739822 -31.796875 21 C-33.43359375 22.4609375 -33.43359375 22.4609375 -34.43359375 22.4609375 C-34.43359375 15.2009375 -34.43359375 7.9409375 -34.43359375 0.4609375 C-9.34806874 -7.06472 -9.34806874 -7.06472 0 0 Z " fill="#EB3136" transform="translate(264.43359375,27.5390625)"/>
<path d="M0 0 C4.57322173 2.69811597 7.50089831 5.71715108 9.02734375 10.91796875 C10.92693897 19.87554277 8.86757234 27.51306536 4.16015625 35.21484375 C-1.80628155 43.67544817 -9.13311754 48.88081091 -18.51953125 53.0546875 C-18.25296553 55.98912152 -18.25296553 55.98912152 -17.51953125 59.0546875 C-14.00699979 61.39637514 -12.65483769 61.55092427 -8.51953125 61.0546875 C-3.65594386 58.20770951 -1.24111079 53.82613759 1.48046875 49.0546875 C5.52199281 49.28785235 7.81849639 49.4775834 10.91796875 52.1796875 C12.97932628 55.97258536 13.27657225 57.7846778 12.48046875 62.0546875 C8.53843542 68.66672423 2.65028263 72.5645725 -4.51953125 75.0546875 C-11.60335253 76.7061305 -19.12324726 76.70462153 -25.49609375 72.86328125 C-31.81308081 67.93065518 -35.06047447 60.84582611 -36.51953125 53.0546875 C-37.75968903 37.53301937 -38.64386503 20.29948401 -28.09375 7.703125 C-20.51630767 -0.23156647 -10.88173909 -4.08276102 0 0 Z M-16.51953125 18.0546875 C-20.15426966 25.19435224 -20.67322965 31.21606896 -20.51953125 39.0546875 C-13.7116734 35.65075857 -8.96468393 31.41055406 -5.58203125 24.4921875 C-4.43802225 20.79098192 -4.4643076 18.74797028 -5.51953125 15.0546875 C-6.55378034 13.81940232 -6.55378034 13.81940232 -8.76953125 13.7421875 C-12.51692984 14.16802825 -13.89811827 15.36428997 -16.51953125 18.0546875 Z " fill="#FCFCFC" transform="translate(469.51953125,55.9453125)"/>
<path d="M0 0 C7.01409248 4.72688841 10.89994512 11.0622256 12.5625 19.375 C12.7171875 21.1384375 12.7171875 21.1384375 12.875 22.9375 C12.95105469 23.61167969 13.02710938 24.28585938 13.10546875 24.98046875 C13.37120666 28.80853106 13.01506014 30.72740979 10.875 33.9375 C7.52256759 36.17245494 5.74583725 36.61670629 1.80859375 36.37109375 C-1.23118646 35.68944607 -2.99196044 34.13517713 -5.125 31.9375 C-6.77997356 28.62755287 -6.22584335 24.94627 -6.1875 21.3125 C-6.18298828 20.51070312 -6.17847656 19.70890625 -6.17382812 18.8828125 C-6.16203168 16.90100994 -6.14409605 14.91924567 -6.125 12.9375 C-6.785 12.9375 -7.445 12.9375 -8.125 12.9375 C-8.77535371 15.45724253 -9.42037493 17.97815935 -10.0625 20.5 C-10.24490234 21.20447266 -10.42730469 21.90894531 -10.61523438 22.63476562 C-12.70923957 30.89656795 -13.28349708 38.74732491 -13.25 47.25 C-13.25386719 48.25095703 -13.25773437 49.25191406 -13.26171875 50.28320312 C-13.25978516 51.7150293 -13.25978516 51.7150293 -13.2578125 53.17578125 C-13.25668457 54.04243408 -13.25555664 54.90908691 -13.25439453 55.80200195 C-13.26192251 57.99057065 -13.26192251 57.99057065 -12.125 59.9375 C-10.475 59.9375 -8.825 59.9375 -7.125 59.9375 C-4.81957258 55.65599193 -3.24710928 51.43410586 -1.87109375 46.79296875 C-1.125 44.9375 -1.125 44.9375 0.875 43.9375 C5.16305207 43.49942788 8.84542079 43.52995823 12.875 45.125 C14.875 46.9375 14.875 46.9375 15.9375 49.125 C15.74697321 57.69870536 8.58914973 64.27202276 2.875 69.9375 C-1.32581308 73.87744889 -5.04755065 75.74621024 -10.859375 76.0625 C-16.43383259 75.75494372 -20.53624693 73.94465551 -24.375 69.875 C-33.10517848 58.67087448 -33.05620153 44.45134018 -32.125 30.9375 C-30.74465991 20.13269157 -27.35757862 10.42079013 -19.0625 3 C-12.93810276 -1.3001087 -7.14575589 -2.429557 0 0 Z " fill="#FCFCFC" transform="translate(520.125,56.0625)"/>
<path d="M0 0 C168.96 0 337.92 0 512 0 C512 1.32 512 2.64 512 4 C343.04 4 174.08 4 0 4 C0 2.68 0 1.36 0 0 Z " fill="#EAEAEA" transform="translate(105,142)"/>
<path d="M0 0 C2.53234786 3.23041424 2.40943071 5.34491281 2.4758606 9.4261322 C2.49273926 10.12759872 2.50961792 10.82906525 2.52700806 11.55178833 C2.57855497 13.87003884 2.60286065 16.18777752 2.62771606 18.50645447 C2.66010099 20.12873267 2.69446465 21.75097247 2.73071289 23.37316895 C2.82211166 27.65054806 2.8916455 31.92798161 2.95510864 36.20585632 C3.0587225 43.01973907 3.19080754 49.83303816 3.33153915 56.64624214 C3.37656045 59.00832437 3.40953676 61.37033882 3.440979 63.7326355 C3.12171149 78.74335718 3.12171149 78.74335718 7.86990356 92.38536072 C8.34161257 95.10591497 8.31917704 97.66128484 7.86990356 100.38536072 C5.73309938 103.0349979 3.95794651 103.36119207 0.68240356 104.26036072 C-5.58937693 104.46599287 -10.24284615 102.84894257 -15.19259644 99.01036072 C-17.13009644 96.38536072 -17.13009644 96.38536072 -17.63009644 93.82286072 C-17.13009644 91.38536072 -17.13009644 91.38536072 -15.60015869 89.67703247 C-13.51376214 86.42456066 -13.90319641 84.1147032 -14.10910034 80.28111267 C-14.14285767 79.57322098 -14.17661499 78.86532928 -14.21139526 78.13598633 C-14.32723897 75.79740527 -14.46632667 73.46087183 -14.60665894 71.12364197 C-14.69448024 69.4918769 -14.78124622 67.86005473 -14.86700439 66.22817993 C-15.05044927 62.80538787 -15.24511641 59.38347217 -15.44796753 55.96177673 C-15.70610349 51.59626002 -15.93899551 47.22985267 -16.16366005 42.86250019 C-16.33960148 39.48943809 -16.52789299 36.1171515 -16.71992111 32.74497032 C-16.81028491 31.13656407 -16.89718316 29.52795895 -16.98042679 27.91916847 C-17.41897996 19.5941477 -18.21102313 12.27025663 -21.13009644 4.38536072 C-19.88009644 1.44786072 -19.88009644 1.44786072 -17.13009644 -0.61463928 C-11.39191731 -2.76916314 -5.171182 -3.91981952 0 0 Z " fill="#FCFCFC" transform="translate(224.13009643554688,27.614639282226563)"/>
<path d="M0 0 C5.25383848 15.76151545 -2.0162465 37.72764981 -8.8203125 51.8515625 C-12.72677385 59.6421014 -17.23499577 66.42950616 -23 73 C-23.65613281 73.78761719 -24.31226563 74.57523437 -24.98828125 75.38671875 C-28.48104665 79.53031001 -28.48104665 79.53031001 -30 81 C-30.66 81 -31.32 81 -32 81 C-31.60485063 79.54148119 -31.20879943 78.08320674 -30.8125 76.625 C-30.54050781 75.62210937 -30.26851562 74.61921875 -29.98828125 73.5859375 C-29.27065791 70.982071 -28.53932915 68.38464055 -27.79296875 65.7890625 C-21.69318726 44.46190269 -19.21309555 25.14485152 -21 3 C-18.06298109 2.49702428 -15.12544669 1.99750127 -12.1875 1.5 C-11.35412109 1.35691406 -10.52074219 1.21382813 -9.66210938 1.06640625 C-8.45844727 0.86337891 -8.45844727 0.86337891 -7.23046875 0.65625 C-6.12288208 0.46772461 -6.12288208 0.46772461 -4.99291992 0.27539062 C-3 0 -3 0 0 0 Z " fill="#EB3136" transform="translate(84,99)"/>
<path d="M0 0 C-0.845625 0.61875 -1.69125 1.2375 -2.5625 1.875 C-10.06821232 8.176966 -14.40553765 17.06308334 -18 26 C-18.53753906 27.13179687 -19.07507813 28.26359375 -19.62890625 29.4296875 C-21.90590231 35.55227691 -21.31498524 42.06689874 -21.1875 48.5 C-21.17396484 49.799375 -21.16042969 51.09875 -21.14648438 52.4375 C-21.11132334 55.62543412 -21.06210664 58.81249599 -21 62 C-23.60060504 63.34070318 -26.20504916 64.67273354 -28.8125 66 C-29.91948242 66.57234375 -29.91948242 66.57234375 -31.04882812 67.15625 C-31.76103516 67.5171875 -32.47324219 67.878125 -33.20703125 68.25 C-34.18893433 68.75273437 -34.18893433 68.75273437 -35.19067383 69.265625 C-37 70 -37 70 -40 70 C-40.70830215 49.27398946 -39.80816497 31.2627652 -25.75 14.75 C-20.44245626 9.13024781 -8.26783804 -2.75594601 0 0 Z " fill="#EC3237" transform="translate(100,12)"/>
<path d="M0 0 C5.19896695 0.63752445 9.0175781 1.47978514 12.94921875 5.21484375 C14.31290071 9.30588962 14.33687735 11.31030703 12.63671875 15.27734375 C8.91111314 19.34951732 4.83136175 21.70577583 -0.05078125 24.21484375 C-0.91445312 24.65957031 -1.778125 25.10429688 -2.66796875 25.5625 C-9.00945484 28.4997039 -15.49546267 30.19504069 -22.30078125 31.65234375 C-23.14044434 31.84070801 -23.98010742 32.02907227 -24.84521484 32.22314453 C-30.56005689 33.3512076 -34.50376294 33.01059507 -40.05078125 31.21484375 C-40.38078125 27.25484375 -40.71078125 23.29484375 -41.05078125 19.21484375 C-34.45078125 16.90484375 -27.85078125 14.59484375 -21.05078125 12.21484375 C-19.56042234 17.43109994 -18.80336159 20.14274078 -19.05078125 25.21484375 C-7.78666162 21.05311709 -7.78666162 21.05311709 1.94921875 14.21484375 C3.15716793 11.01196518 3.15716793 11.01196518 2.94921875 8.21484375 C0.38930251 6.20348099 -2.09668424 4.58638879 -5.05078125 3.21484375 C-3.41516875 1.2157618 -2.62330868 0.27482281 0 0 Z " fill="#F8F6F6" transform="translate(102.05078125,68.78515625)"/>
<path d="M0 0 C2.701875 -0.0825 5.40375 -0.165 8.1875 -0.25 C9.02949951 -0.28641602 9.87149902 -0.32283203 10.73901367 -0.36035156 C14.6232214 -0.41760127 16.59717422 -0.24054752 20.015625 1.80078125 C22 4 22 4 22.5625 7.4375 C21.92913107 11.44883655 20.79224926 13.12049295 18 16 C18.433125 16.62648438 18.86625 17.25296875 19.3125 17.8984375 C19.869375 18.71570313 20.42625 19.53296875 21 20.375 C21.556875 21.18710937 22.11375 21.99921875 22.6875 22.8359375 C24 25 24 25 24 27 C21.21875 27.30859375 21.21875 27.30859375 18 27 C16.09375 24.84765625 16.09375 24.84765625 14.5 22.0625 C13.00126168 19.264795 13.00126168 19.264795 11 17 C7.88320185 16.10583567 7.88320185 16.10583567 5 16 C5 19.63 5 23.26 5 27 C3.35 27 1.7 27 0 27 C0 18.09 0 9.18 0 0 Z M5 4 C5 6.64 5 9.28 5 12 C11.31268603 12.37552165 11.31268603 12.37552165 17 10 C16.62095792 6.70924004 16.62095792 6.70924004 15 4 C13.31391034 3.92794489 11.62499341 3.91613932 9.9375 3.9375 C9.01839844 3.94652344 8.09929688 3.95554687 7.15234375 3.96484375 C6.44207031 3.97644531 5.73179687 3.98804688 5 4 Z " fill="#F3F3F3" transform="translate(612,17)"/>
<path d="M0 0 C5.02449961 2.96236123 8.45564122 7.04562977 11 12.25 C12.34295235 19.09905699 12.60158556 25.37079554 9.00390625 31.55078125 C4.98399918 37.05110736 0.87488387 40.53019172 -5.875 42 C-12.32181653 42.81142504 -16.81089679 41.84524294 -22.5625 38.6875 C-29.17586169 33.39681065 -31.80347101 28.48600606 -32.75 20.125 C-32.06823835 13.42101043 -30.05496426 7.50746263 -24.9375 2.9375 C-17.98404064 -2.61236084 -8.13643168 -3.65277183 0 0 Z M-26.25 8.375 C-29.9092417 13.64861303 -30.89971382 17.84880674 -29.96875 24.1328125 C-28.5205712 29.75403286 -25.45800194 33.99208606 -20.8125 37.4375 C-15.57947462 40.34583547 -10.18713426 40.41400105 -4.375 39.4375 C1.87180544 36.95297511 6.19188888 32.73365557 8.875 26.5625 C10.39791216 20.21703266 9.81486854 15.41827274 7.03515625 9.58984375 C4.06843642 5.06169242 -0.29278203 2.13157266 -5.375 0.4375 C-14.33573003 -0.67662274 -20.22268039 1.71507542 -26.25 8.375 Z " fill="#F1F1F1" transform="translate(634.375,10.5625)"/>
<path d="M0 0 C2.09715785 3.14573677 2.52004559 5.01456251 3.125 8.6875 C3.29257813 9.68136719 3.46015625 10.67523438 3.6328125 11.69921875 C3.75398438 12.45847656 3.87515625 13.21773437 4 14 C-3.3549914 16.44408524 -10.2501365 18.47458553 -18 19 C-18.33 15.04 -18.66 11.08 -19 7 C-12.73 4.69 -6.46 2.38 0 0 Z " fill="#EC3338" transform="translate(80,81)"/>
<path d="M0 0 C1.65 0 3.3 0 5 0 C5.67057887 1.7902061 6.3363469 3.58221489 7 5.375 C7.556875 6.87160156 7.556875 6.87160156 8.125 8.3984375 C9 11 9 11 9 13 C9.66 13 10.32 13 11 13 C11.1546875 12.01 11.1546875 12.01 11.3125 11 C12.19213564 7.16158991 13.56969896 3.66903309 15 0 C16.65 0 18.3 0 20 0 C20 6.27 20 12.54 20 19 C18.68 19 17.36 19 16 19 C15.67 16.36 15.34 13.72 15 11 C14.01 13.64 13.02 16.28 12 19 C9.6875 19 9.6875 19 7 18 C5.58711853 15.38948072 4.864695 12.86714656 4 10 C3.67 12.97 3.34 15.94 3 19 C2.01 19 1.02 19 0 19 C0 12.73 0 6.46 0 0 Z " fill="#F9F9F9" transform="translate(105,150)"/>
<path d="M0 0 C5 1 5 1 7.01953125 3.28515625 C7.61121094 4.20167969 8.20289063 5.11820313 8.8125 6.0625 C9.41707031 6.98160156 10.02164063 7.90070313 10.64453125 8.84765625 C11.09183594 9.55792969 11.53914062 10.26820313 12 11 C12.33 7.37 12.66 3.74 13 0 C14.32 0 15.64 0 17 0 C17 6.27 17 12.54 17 19 C11.58456463 17.91691293 11.18811911 17.61483249 8.1875 13.4375 C7.28064453 12.19806641 7.28064453 12.19806641 6.35546875 10.93359375 C5.90816406 10.29550781 5.46085938 9.65742188 5 9 C4.67 12.3 4.34 15.6 4 19 C2.68 19 1.36 19 0 19 C0 12.73 0 6.46 0 0 Z " fill="#F7F7F7" transform="translate(176,150)"/>
<path d="M0 0 C5 1 5 1 7.01953125 3.28515625 C7.61121094 4.20167969 8.20289063 5.11820313 8.8125 6.0625 C9.41707031 6.98160156 10.02164062 7.90070313 10.64453125 8.84765625 C11.09183594 9.55792969 11.53914063 10.26820313 12 11 C12.33 7.37 12.66 3.74 13 0 C14.32 0 15.64 0 17 0 C17 6.27 17 12.54 17 19 C11.58456463 17.91691293 11.18811911 17.61483249 8.1875 13.4375 C7.28064453 12.19806641 7.28064453 12.19806641 6.35546875 10.93359375 C5.90816406 10.29550781 5.46085937 9.65742188 5 9 C4.67 12.3 4.34 15.6 4 19 C2.68 19 1.36 19 0 19 C0 12.73 0 6.46 0 0 Z " fill="#FAFAFA" transform="translate(464,150)"/>
<path d="M0 0 C2.0625 -0.061875 4.125 -0.12375 6.25 -0.1875 C7.99023438 -0.23970703 7.99023438 -0.23970703 9.765625 -0.29296875 C13.24698247 0.0223716 14.61831539 0.4782163 17 3 C17.25 6.1875 17.25 6.1875 17 9 C16.01 9.33 15.02 9.66 14 10 C15.65 12.97 17.3 15.94 19 19 C14 19 14 19 12.33984375 17.50390625 C11.87707031 16.86324219 11.41429687 16.22257812 10.9375 15.5625 C8.90056387 12.72730569 8.90056387 12.72730569 5.81640625 11.27734375 C5.21699219 11.18582031 4.61757813 11.09429687 4 11 C4 13.64 4 16.28 4 19 C2.68 19 1.36 19 0 19 C0 12.73 0 6.46 0 0 Z M4 3 C4 4.65 4 6.3 4 8 C6.64 8 9.28 8 12 8 C12.33 6.68 12.66 5.36 13 4 C10.04335481 2.5216774 7.25770263 2.93967217 4 3 Z " fill="#F9F9F9" transform="translate(324,150)"/>
<path d="M0 0 C2.5625 1.25 2.5625 1.25 4 3 C4 4.32 4 5.64 4 7 C2.68 6.67 1.36 6.34 0 6 C0 5.34 0 4.68 0 4 C-4.65951036 3.6150192 -4.65951036 3.6150192 -8.9375 5.125 C-10.52225401 7.92162472 -10.45947423 9.8493196 -10 13 C-8.48105194 15.09764165 -8.48105194 15.09764165 -6 16 C-2.80764728 15.77426109 -2.80764728 15.77426109 0 15 C0.33 14.01 0.66 13.02 1 12 C-0.98 12 -2.96 12 -5 12 C-5 11.01 -5 10.02 -5 9 C-1.7 9 1.6 9 5 9 C5 11.64 5 14.28 5 17 C0.44714521 19.91849666 -2.74632178 20.37366337 -7.9453125 19.5859375 C-10.83135842 18.7629206 -12.25443518 17.40015163 -14 15 C-15.7591705 11.48165899 -14.9386806 7.72167026 -14 4 C-10.28006457 -0.76616728 -5.64034132 -0.87341106 0 0 Z " fill="#F6F6F6" transform="translate(161,150)"/>
<path d="M0 0 C5 1 5 1 7.01953125 3.28515625 C7.61121094 4.20167969 8.20289063 5.11820313 8.8125 6.0625 C9.41707031 6.98160156 10.02164062 7.90070313 10.64453125 8.84765625 C11.09183594 9.55792969 11.53914063 10.26820313 12 11 C12.33 7.37 12.66 3.74 13 0 C14.32 0 15.64 0 17 0 C17 6.27 17 12.54 17 19 C15.35 19 13.7 19 12 19 C9.76171875 16.59375 9.76171875 16.59375 7.6875 13.5 C6.99011719 12.4790625 6.29273438 11.458125 5.57421875 10.40625 C5.05472656 9.6121875 4.53523438 8.818125 4 8 C3.67 11.63 3.34 15.26 3 19 C2.01 19 1.02 19 0 19 C0 12.73 0 6.46 0 0 Z " fill="#F8F8F8" transform="translate(260,150)"/>
<path d="M0 0 C5 1 5 1 7.01953125 3.28515625 C7.61121094 4.20167969 8.20289063 5.11820313 8.8125 6.0625 C9.41707031 6.98160156 10.02164062 7.90070313 10.64453125 8.84765625 C11.09183594 9.55792969 11.53914063 10.26820313 12 11 C12.33 7.37 12.66 3.74 13 0 C14.32 0 15.64 0 17 0 C17 6.27 17 12.54 17 19 C15.35 19 13.7 19 12 19 C9.76171875 16.59375 9.76171875 16.59375 7.6875 13.5 C6.99011719 12.4790625 6.29273438 11.458125 5.57421875 10.40625 C5.05472656 9.6121875 4.53523438 8.818125 4 8 C3.67 11.63 3.34 15.26 3 19 C2.01 19 1.02 19 0 19 C0 12.73 0 6.46 0 0 Z " fill="#FAFAFA" transform="translate(444,150)"/>
<path d="M0 0 C5.78254573 1.15650915 6.15849554 1.91167987 9.3125 6.5625 C10.00988281 7.57441406 10.70726562 8.58632812 11.42578125 9.62890625 C11.94527344 10.41136719 12.46476562 11.19382813 13 12 C13.33 8.04 13.66 4.08 14 0 C14.99 0 15.98 0 17 0 C17 6.27 17 12.54 17 19 C11.58456463 17.91691293 11.18811911 17.61483249 8.1875 13.4375 C7.28064453 12.19806641 7.28064453 12.19806641 6.35546875 10.93359375 C5.90816406 10.29550781 5.46085937 9.65742188 5 9 C4.67 12.3 4.34 15.6 4 19 C2.68 19 1.36 19 0 19 C0 12.73 0 6.46 0 0 Z " fill="#FBFBFB" transform="translate(344,150)"/>
<path d="M0 0 C2.8100346 1.79363911 4.50940468 3.01880935 6 6 C6.36206054 10.41713859 6.51432609 12.94898583 4.5625 16.9375 C0.92180783 19.86781321 -2.38695772 20.28831514 -7 20 C-9.98636669 18.79274538 -11.39865744 17.80179008 -13.3125 15.25 C-14.31199111 11.9789382 -14.3581657 9.40257412 -14 6 C-10.26747896 0.27680107 -6.74763808 -0.96948823 0 0 Z M-10 7 C-10.45774125 10.20418874 -10.60972017 12.06937448 -8.8125 14.8125 C-6.45769347 16.35530428 -4.81900839 16.8624874 -2 17 C0.4607536 16.21750908 0.4607536 16.21750908 2 14 C2.67615404 10.38633229 2.71170889 7.19866761 0.8125 4 C-3.84202746 1.43198485 -7.05072323 2.84916602 -10 7 Z " fill="#F7F7F7" transform="translate(420,150)"/>
<path d="M0 0 C2.32691806 1.70044012 3.50169803 3.42188077 3.9609375 6.2734375 C4.02657185 10.11961019 3.87199641 12.67202922 2.1875 16.1875 C-1.46700179 19.03979408 -4.7950987 19.47374383 -9.375 19.1875 C-12.38585126 17.97034736 -13.80652262 17.10686514 -15.5078125 14.35546875 C-17.01779316 10.58051709 -16.44982403 7.04130983 -15.375 3.1875 C-11.30907279 -1.86410654 -5.95393846 -2.03687368 0 0 Z M-10.6875 3.8125 C-12.85398298 6.8616242 -12.92124158 8.51987794 -12.375 12.1875 C-10.80967041 14.57668727 -9.62455992 15.09791439 -6.9375 16.0625 C-4.33868435 16.39915213 -4.33868435 16.39915213 -2.125 15.0625 C0.08166636 12.69821461 0.54807328 11.41842228 0.625 8.1875 C-0.5165919 5.9043162 -1.56512683 3.99737317 -3.375 2.1875 C-6.6238448 1.74846692 -7.97297415 1.90499535 -10.6875 3.8125 Z " fill="#F9F9F9" transform="translate(580.375,150.8125)"/>
<path d="M0 0 C2.98936029 1.52648185 4.52318042 2.60804221 5.62890625 5.8359375 C6.50823057 10.66759322 5.84995783 13.87247487 3 18 C-0.75841322 20.40410227 -3.58769218 20.16168865 -7.87109375 19.51953125 C-10 19 -10 19 -12.5625 17.5625 C-14.83454467 13.51233341 -14.76835109 9.52724518 -14 5 C-10.30250116 -0.05324842 -6.04847086 -0.79951052 0 0 Z M-9.375 5.125 C-11.25627982 7.90300794 -11.25627982 7.90300794 -11 11.125 C-10.19710122 14.03449886 -10.19710122 14.03449886 -8.25 15.9375 C-6.02756768 17.2027898 -6.02756768 17.2027898 -3.4375 16.875 C-0.75044008 15.91041439 0.43467041 15.38918727 2 13 C2.54624158 9.33237794 2.47898298 7.6741242 0.3125 4.625 C-1.88986616 2.85785358 -1.88986616 2.85785358 -4.5 2.4375 C-7.1999129 2.83181646 -7.1999129 2.83181646 -9.375 5.125 Z " fill="#F4F4F4" transform="translate(498,150)"/>
<path d="M0 0 C3.04356506 0.54217353 4.65949136 1.20709481 6.9296875 3.34375 C8.61515897 7.06952903 9.21724699 10.16737026 8.2421875 14.15625 C5.9296875 18.01041667 5.9296875 18.01041667 3.9296875 19.34375 C-0.37707594 20.31624497 -2.78592449 20.8575052 -6.8828125 19.21875 C-9.43992869 17.02693613 -10.78946719 15.47470521 -12.0703125 12.34375 C-12.0703125 8.05758323 -11.47630656 5.92198396 -9.0078125 2.40625 C-5.66939034 0.06225146 -3.97285102 -0.29983781 0 0 Z M-6.4453125 4.90625 C-8.39966574 7.34952813 -8.39966574 7.34952813 -8.0703125 10.90625 C-7.33949894 14.3200048 -7.33949894 14.3200048 -5.3203125 16.34375 C-3.09016982 17.52726258 -3.09016982 17.52726258 -0.5078125 17.28125 C2.52081766 16.11639225 3.50922548 15.26358859 4.9296875 12.34375 C4.80014904 9.17005784 4.44847517 7.12193151 2.6796875 4.46875 C-0.73448646 2.27392389 -3.1473293 2.73652421 -6.4453125 4.90625 Z " fill="#F5F5F5" transform="translate(249.0703125,149.65625)"/>
<path d="M0 0 C2.5 1.3125 2.5 1.3125 4 3 C4 3.99 4 4.98 4 6 C3.01 6.33 2.02 6.66 1 7 C0.67 6.01 0.34 5.02 0 4 C-2.64 4 -5.28 4 -8 4 C-7.15466897 6.26447422 -7.15466897 6.26447422 -4.53125 6.89453125 C-2.51257113 7.50585797 -0.4917169 8.11004746 1.53125 8.70703125 C4 10 4 10 4.96875 12.4609375 C5 15 5 15 3 17.8125 C-0.69749582 20.5085907 -2.51475227 20.57084971 -7 20 C-9.375 19.3125 -9.375 19.3125 -11 18 C-11.75 15.375 -11.75 15.375 -12 13 C-11.01 12.67 -10.02 12.34 -9 12 C-8.443125 12.680625 -7.88625 13.36125 -7.3125 14.0625 C-6.549375 14.701875 -5.78625 15.34125 -5 16 C-2.29294488 15.85974801 -2.29294488 15.85974801 0 15 C0 14.34 0 13.68 0 13 C-3.63 11.68 -7.26 10.36 -11 9 C-11.1875 5.625 -11.1875 5.625 -11 2 C-7.30628421 -0.46247719 -4.28710603 -0.56931388 0 0 Z " fill="#F4F4F4" transform="translate(376,150)"/>
<path d="M0 0 C1.32 0 2.64 0 4 0 C6.140625 2.40625 6.140625 2.40625 8.25 5.5 C8.95640625 6.5209375 9.6628125 7.541875 10.390625 8.59375 C10.92171875 9.3878125 11.4528125 10.181875 12 11 C12.33 7.37 12.66 3.74 13 0 C13.99 0 14.98 0 16 0 C16 6.27 16 12.54 16 19 C11 18 11 18 8.98046875 15.71484375 C8.38878906 14.79832031 7.79710937 13.88179687 7.1875 12.9375 C6.58292969 12.01839844 5.97835937 11.09929687 5.35546875 10.15234375 C4.90816406 9.44207031 4.46085938 8.73179687 4 8 C3.67 11.63 3.34 15.26 3 19 C2.01 19 1.02 19 0 19 C0 12.73 0 6.46 0 0 Z " fill="#FAFAFA" transform="translate(587,150)"/>
<path d="M0 0 C1.32 0 2.64 0 4 0 C4.33 4.95 4.66 9.9 5 15 C8.85938975 16.34513424 8.85938975 16.34513424 12 15 C12.33 10.05 12.66 5.1 13 0 C14.32 0 15.64 0 17 0 C17.13572155 2.39774745 17.23436868 4.78775245 17.3125 7.1875 C17.35439453 7.86103516 17.39628906 8.53457031 17.43945312 9.22851562 C17.53527567 13.15723998 17.14206269 14.81789927 14.69921875 17.94921875 C12 20 12 20 8.5 20.625 C4.02558073 19.82599656 2.77652803 18.55904696 0 15 C-0.36771245 12.1612599 -0.48630804 9.98179849 -0.3125 7.1875 C-0.28994141 6.49462891 -0.26738281 5.80175781 -0.24414062 5.08789062 C-0.18562661 3.39098427 -0.0959548 1.69520139 0 0 Z " fill="#F8F8F8" transform="translate(304,150)"/>
<path d="M0 0 C1.32 0 2.64 0 4 0 C5.33957921 2.78871177 6.67058435 5.58143062 8 8.375 C8.3815625 9.1690625 8.763125 9.963125 9.15625 10.78125 C9.5171875 11.54179687 9.878125 12.30234375 10.25 13.0859375 C10.75273437 14.1385376 10.75273437 14.1385376 11.265625 15.21240234 C12 17 12 17 12 19 C10.35 18.67 8.7 18.34 7 18 C6.67 16.68 6.34 15.36 6 14 C3.36 14 0.72 14 -2 14 C-2.66 15.65 -3.32 17.3 -4 19 C-5.32 18.67 -6.64 18.34 -8 18 C-6.85718854 15.18623705 -5.71091259 12.37397584 -4.5625 9.5625 C-4.23701172 8.76005859 -3.91152344 7.95761719 -3.57617188 7.13085938 C-3.10727539 5.98520508 -3.10727539 5.98520508 -2.62890625 4.81640625 C-2.34088135 4.10943604 -2.05285645 3.40246582 -1.75610352 2.67407227 C-1 1 -1 1 0 0 Z M1 6 C0.67 7.65 0.34 9.3 0 11 C1.32 11 2.64 11 4 11 C3.67 9.35 3.34 7.7 3 6 C2.34 6 1.68 6 1 6 Z " fill="#F5F5F5" transform="translate(202,150)"/>
<path d="M0 0 C1.32 0 2.64 0 4 0 C5.33631721 2.97783718 6.66855104 5.95748332 8 8.9375 C8.3815625 9.78763672 8.763125 10.63777344 9.15625 11.51367188 C9.5171875 12.32255859 9.878125 13.13144531 10.25 13.96484375 C10.58515625 14.7137085 10.9203125 15.46257324 11.265625 16.23413086 C12 18 12 18 12 19 C10.35 19 8.7 19 7 19 C6.67 17.35 6.34 15.7 6 14 C1.94914321 14.24631557 1.94914321 14.24631557 -2 15 C-3.5899433 16.92064793 -3.5899433 16.92064793 -4 19 C-5.32 18.67 -6.64 18.34 -8 18 C-6.85718854 15.18623705 -5.71091259 12.37397584 -4.5625 9.5625 C-4.23701172 8.76005859 -3.91152344 7.95761719 -3.57617188 7.13085938 C-3.10727539 5.98520508 -3.10727539 5.98520508 -2.62890625 4.81640625 C-2.34088135 4.10943604 -2.05285645 3.40246582 -1.75610352 2.67407227 C-1 1 -1 1 0 0 Z M1 5 C0.34 6.98 -0.32 8.96 -1 11 C0.65 11 2.3 11 4 11 C3.34 9.02 2.68 7.04 2 5 C1.67 5 1.34 5 1 5 Z " fill="#F6F6F6" transform="translate(529,150)"/>
<path d="M0 0 C1.32 0 2.64 0 4 0 C6.64 6.27 9.28 12.54 12 19 C10.35 19 8.7 19 7 19 C6.67 17.35 6.34 15.7 6 14 C1.94914321 14.24631557 1.94914321 14.24631557 -2 15 C-3.5899433 16.92064793 -3.5899433 16.92064793 -4 19 C-5.32 19 -6.64 19 -8 19 C-6.00386732 12.2813095 -3.2708579 6.19265192 0 0 Z M1 5 C0.34 6.98 -0.32 8.96 -1 11 C0.65 11 2.3 11 4 11 C3.34 9.02 2.68 7.04 2 5 C1.67 5 1.34 5 1 5 Z " fill="#F7F7F7" transform="translate(134,150)"/>
<path d="M0 0 C1.32 0 2.64 0 4 0 C5.98 4.29 7.96 8.58 10 13 C10.7425 11.040625 11.485 9.08125 12.25 7.0625 C13.515625 3.72265625 13.515625 3.72265625 15 1 C17.171875 0.12109375 17.171875 0.12109375 19 0 C18.4253379 4.78642607 17.01754357 8.53788787 14.9375 12.875 C14.38964844 14.02742187 13.84179688 15.17984375 13.27734375 16.3671875 C12.85582031 17.23601562 12.43429687 18.10484375 12 19 C10.35 19 8.7 19 7 19 C5.82905995 16.2100561 4.66309073 13.41821403 3.5 10.625 C2.99919922 9.43390625 2.99919922 9.43390625 2.48828125 8.21875 C2.17246094 7.45820313 1.85664063 6.69765625 1.53125 5.9140625 C1.23798828 5.2123291 0.94472656 4.5105957 0.64257812 3.78759766 C0 2 0 2 0 0 Z " fill="#F6F6F6" transform="translate(504,150)"/>
<path d="M0 0 C0 3 0 3 -1.5625 6.625 C-3.66038347 12.10559509 -3.36137629 16.82158015 -1.0546875 22.20703125 C1.11924134 26.08699034 3.63009508 29.32569571 7.6875 31.390625 C12.97510816 32.7839812 18.5840632 32.27042126 24 32 C23.67 32.99 23.34 33.98 23 35 C15.64218123 36.31389621 10.41912586 35.87716714 3.8125 32.25 C-1.64134871 27.88692103 -4.66568393 23.91418328 -6 17 C-6.48981788 11.51403978 -5.53541145 7.88301464 -3 3 C-1.3125 1.0625 -1.3125 1.0625 0 0 Z " fill="#F2F2F2" transform="translate(608,17)"/>
<path d="M0 0 C5.61 0 11.22 0 17 0 C17 0.99 17 1.98 17 3 C15.02 3 13.04 3 11 3 C11 8.28 11 13.56 11 19 C9.68 19 8.36 19 7 19 C7 13.72 7 8.44 7 3 C4.69 3 2.38 3 0 3 C0 2.01 0 1.02 0 0 Z " fill="#FBFBFB" transform="translate(285,150)"/>
<path d="M0 0 C5.61 0 11.22 0 17 0 C17 0.99 17 1.98 17 3 C14.69 3 12.38 3 10 3 C10 8.28 10 13.56 10 19 C8.68 19 7.36 19 6 19 C6 13.72 6 8.44 6 3 C4.02 3 2.04 3 0 3 C0 2.01 0 1.02 0 0 Z " fill="#FBFBFB" transform="translate(212,150)"/>
<path d="M0 0 C5.28 0 10.56 0 16 0 C16 0.99 16 1.98 16 3 C14.02 3 12.04 3 10 3 C10 8.28 10 13.56 10 19 C8.68 19 7.36 19 6 19 C6 13.72 6 8.44 6 3 C4.02 3 2.04 3 0 3 C0 2.01 0 1.02 0 0 Z " fill="#FDFDFD" transform="translate(539,150)"/>
<path d="M0 0 C5.28 0 10.56 0 16 0 C16 0.99 16 1.98 16 3 C14.02 3 12.04 3 10 3 C10 8.28 10 13.56 10 19 C8.68 19 7.36 19 6 19 C6 13.72 6 8.44 6 3 C4.02 3 2.04 3 0 3 C0 2.01 0 1.02 0 0 Z " fill="#FDFDFD" transform="translate(389,150)"/>
<path d="M0 0 C1.32 0 2.64 0 4 0 C4 6.27 4 12.54 4 19 C2.68 19 1.36 19 0 19 C0 12.73 0 6.46 0 0 Z " fill="#F8F8F8" transform="translate(231,150)"/>
<path d="M0 0 C1.32 0 2.64 0 4 0 C4 6.27 4 12.54 4 19 C2.68 19 1.36 19 0 19 C0 12.73 0 6.46 0 0 Z " fill="#FCFCFC" transform="translate(169,150)"/>
<path d="M0 0 C0.99 0 1.98 0 3 0 C3 6.27 3 12.54 3 19 C2.01 19 1.02 19 0 19 C0 12.73 0 6.46 0 0 Z " fill="#FDFDFD" transform="translate(558,150)"/>
<path d="M0 0 C0.99 0 1.98 0 3 0 C3 6.27 3 12.54 3 19 C2.01 19 1.02 19 0 19 C0 12.73 0 6.46 0 0 Z " fill="#FDFDFD" transform="translate(437,150)"/>
<path d="M0 0 C0.99 0 1.98 0 3 0 C3 6.27 3 12.54 3 19 C2.01 19 1.02 19 0 19 C0 12.73 0 6.46 0 0 Z " fill="#FDFDFD" transform="translate(98,150)"/>
<path d="M0 0 C0.66 0.33 1.32 0.66 2 1 C-1.84927419 5.27697133 -6.60713857 8.09663714 -12 10 C-10.50314027 5.50942081 -6.89704176 3.3347533 -3 1 C-2.01 0.67 -1.02 0.34 0 0 Z " fill="#D6D6D6" transform="translate(618,9)"/>
<path d="M0 0 C0 2.93854365 -0.38160277 4.18737317 -1.5 6.8125 C-2.88691407 10.33513151 -3.28642783 13.18096222 -3 17 C-3.99 17 -4.98 17 -6 17 C-6.378448 10.81868264 -5.4780863 5.8452102 -1.3125 1.0625 C-0.6628125 0.5365625 -0.6628125 0.5365625 0 0 Z " fill="#F8F8F8" transform="translate(608,17)"/>
<path d="M0 0 C0.33 0.99 0.66 1.98 1 3 C-5.07439825 9.70459519 -5.07439825 9.70459519 -8.9375 10.9375 C-9.9584375 10.9684375 -9.9584375 10.9684375 -11 11 C-9.65515549 6.96546646 -7.51870529 6.27680931 -4 4 C-2.63113049 2.70317626 -1.2830709 1.38176866 0 0 Z " fill="#E9E9E9" transform="translate(642,40)"/>
<path d="M0 0 C0.66 0.66 1.32 1.32 2 2 C-2.455 2.495 -2.455 2.495 -7 3 C-7.33 2.01 -7.66 1.02 -8 0 C-4.96083486 -0.97687451 -3.01586454 -1.105817 0 0 Z " fill="#FAD3D4" transform="translate(75,99)"/>
</svg>
